<svg xmlns="http://www.w3.org/2000/svg" width="120" height="96"><path d="M65 18c2.074 2.074 1.322 6.197 1 9l-2 3v4l3.125.438C72.371 35.975 75.269 39.953 77 45c-.686 6.506-1.452 9.69-8 11-1.065 14.611-1.065 14.611 3 28-3.75 1.125-3.75 1.125-6 0a107 107 0 0 1-1.625-7.062c-.26-1.29-.52-2.581-.79-3.91-.192-1-.386-1.999-.585-3.028h-1c-.09 1.499-.09 1.499-.184 3.027l-.254 3.91c-.08 1.288-.162 2.576-.246 3.903C61 84 61 84 60 85c-2 .04-4 .043-6 0v-2l4-1a1223 1223 0 0 0-1.437-4.937l-.81-2.778C55.21 72.06 55.21 72.06 54 71a104 104 0 0 1-.316-5.348l-.127-3.271-.12-3.443-.13-3.456Q53.147 51.242 53 47l-3.328-.434C41.757 45.346 40.24 42.192 38 35c3 0 3 0 4 3h2c1.625 2 1.625 2 3 4 3.493-.24 3.883-.766 5.5-4s2.007-3.76 5.5-4c.181-3.076-.041-5.119-1.062-8.062-.95-2.973-1.235-4.145.062-6.938 3.498-2.332 4.146-2.116 8-1m1 23a110 110 0 0 0-.062 5.563l.027 3.066c-.339 2.586-.339 2.586 1.926 2.937 2.967.61 3.503-.077 5.109-2.566.728-4.885-.077-7-4-10-2-.236-2-.236-3 1M40 24c-2 3-2 3-9 2 1-2 1-2 9-2m49 43c1.493 2.987 1.132 5.744 1.125 9.063l.008 3.847C90 83 90 83 89 84c-1.853.072-3.708.084-5.562.063l-3.067-.028L78 84c.506-2.169 1-4 2-6 .278-3.635.447-7.27.621-10.91.836-6.818 4.596-2.715 8.379-.09"/></svg>