<svg width="24" height="24" viewBox="0 0 24 24" fill="none" xmlns="http://www.w3.org/2000/svg">
    <path
        d="M17.884 7.371C17.8396 7.32041 17.785 7.27975 17.7239 7.25167C17.6627 7.22358 17.5963 7.2087 17.529 7.208H13.917V5.857C13.917 5.589 13.975 5.282 14.406 5.282H17.281C17.3442 5.28602 17.4075 5.27508 17.4657 5.25006C17.5239 5.22504 17.5754 5.18665 17.616 5.138C17.6591 5.09547 17.6932 5.04468 17.7162 4.98867C17.7393 4.93265 17.7507 4.87256 17.75 4.812V0.979C17.75 0.851961 17.6995 0.730126 17.6097 0.640296C17.5199 0.550466 17.398 0.5 17.271 0.5H13.121C8.52099 0.5 8.16699 4.429 8.16699 5.627V7.208H5.77099C5.64395 7.208 5.52212 7.25847 5.43229 7.3483C5.34246 7.43813 5.29199 7.55996 5.29199 7.687V11.52C5.29199 11.647 5.34246 11.7689 5.43229 11.8587C5.52212 11.9485 5.64395 11.999 5.77099 11.999H8.16699V23.02C8.16699 23.147 8.21746 23.2689 8.30729 23.3587C8.39712 23.4485 8.51895 23.499 8.64599 23.499H13.438C13.565 23.499 13.6869 23.4485 13.7767 23.3587C13.8665 23.2689 13.917 23.147 13.917 23.02V12H17.127C17.2461 12.0006 17.3612 11.9568 17.4498 11.8771C17.5384 11.7974 17.5941 11.6875 17.606 11.569L17.999 7.736C18.0077 7.67061 18.0019 7.6041 17.982 7.5412C17.9621 7.4783 17.9287 7.42054 17.884 7.372V7.371Z"
        fill="#F9332B"
    />
</svg>
