<svg width="24" height="24" viewBox="0 0 16 16" fill="none" xmlns="http://www.w3.org/2000/svg"><path fill-rule="evenodd" clip-rule="evenodd" d="M14.927 3.943a7.925 7.925 0 0 0-2.912-2.881A7.887 7.887 0 0 0 8 0C6.549 0 5.21.354 3.984 1.062a7.924 7.924 0 0 0-2.911 2.881A7.684 7.684 0 0 0 0 7.918c0 1.725.509 3.276 1.526 4.654 1.017 1.378 2.332 2.332 3.943 2.861.187.034.326.01.416-.072a.401.401 0 0 0 .136-.31l-.006-.556c-.003-.35-.005-.656-.005-.917l-.24.04a3.09 3.09 0 0 1-.578.037 4.453 4.453 0 0 1-.724-.072 1.624 1.624 0 0 1-.697-.31 1.308 1.308 0 0 1-.459-.633l-.104-.238a2.573 2.573 0 0 0-.328-.525c-.15-.193-.3-.323-.453-.392l-.073-.052a.763.763 0 0 1-.135-.123.563.563 0 0 1-.094-.145c-.02-.048-.004-.087.052-.119.056-.03.156-.046.302-.046l.208.031c.14.028.311.11.516.248.205.137.373.316.505.536.16.281.352.496.578.644.226.148.453.222.682.222.23 0 .428-.018.594-.052.167-.034.323-.086.469-.155.062-.46.233-.814.51-1.062a7.183 7.183 0 0 1-1.067-.185 4.275 4.275 0 0 1-.98-.402 2.798 2.798 0 0 1-.838-.691c-.222-.275-.405-.636-.547-1.083-.142-.446-.213-.962-.213-1.546 0-.832.274-1.54.823-2.124-.257-.625-.233-1.326.073-2.103.2-.062.5-.015.895.14.396.154.686.286.87.396.184.11.332.203.443.279a7.469 7.469 0 0 1 2-.268c.687 0 1.354.089 2 .268l.396-.248c.27-.165.59-.316.958-.453.368-.138.65-.176.844-.114.312.777.34 1.478.083 2.103.549.584.823 1.292.823 2.124 0 .584-.071 1.101-.213 1.552-.143.45-.326.81-.552 1.082-.226.272-.507.5-.844.686-.337.185-.663.32-.98.402a7.193 7.193 0 0 1-1.067.186c.361.309.542.797.542 1.463v2.176c0 .123.043.226.13.309.087.082.224.106.411.072 1.611-.53 2.926-1.483 3.943-2.861C15.491 11.194 16 9.642 16 7.917a7.69 7.69 0 0 0-1.073-3.974Z" fill="#F9332B"/></svg>
