<svg width="24" height="24" viewBox="0 0 24 24" fill="none" xmlns="http://www.w3.org/2000/svg"><g clip-path="url(#clip0_4_516)" fill="#F9332B"><path d="M18.229.5H5.771A5.28 5.28 0 0 0 .5 5.771v12.458A5.28 5.28 0 0 0 5.771 23.5h12.458a5.28 5.28 0 0 0 5.271-5.271V5.771A5.28 5.28 0 0 0 18.229.5Zm1.438 15.333a3.833 3.833 0 0 1-3.833 3.833H8.167a3.833 3.833 0 0 1-3.833-3.833V8.167a3.833 3.833 0 0 1 3.833-3.833h7.667a3.833 3.833 0 0 1 3.833 3.833v7.666Z"/><path d="M8.167 12a3.834 3.834 0 1 0 7.667 0 3.834 3.834 0 0 0-7.667 0ZM15.833 7.208a.958.958 0 1 0 1.916 0 .958.958 0 0 0-1.916 0Z"/></g><defs><clipPath id="clip0_4_516"><path fill="#fff" d="M0 0h24v24H0z"/></clipPath></defs></svg>
