<svg width="24" height="24" viewBox="0 0 24 24" fill="none" xmlns="http://www.w3.org/2000/svg"><g clip-path="url(#clip0_4_521)"><path fill-rule="evenodd" clip-rule="evenodd" d="M22.451.791a.958.958 0 0 1 .048 1.355l-7.797 8.361 8.606 11.423a.957.957 0 0 1-.766 1.535h-5.25a.958.958 0 0 1-.766-.38l-6.057-8.039-7.565 8.114a.958.958 0 1 1-1.402-1.307l7.797-8.36L.693 2.068A.958.958 0 0 1 1.458.534h5.251a.958.958 0 0 1 .765.381l6.057 8.038L21.095.84a.959.959 0 0 1 1.356-.048Zm-9.727 10.277a.95.95 0 0 1-.075-.099L6.231 2.45H3.38l14.389 19.1h2.851l-7.897-10.48.001-.002Z" fill="#F9332B" /></g><defs><clipPath id="clip0_4_521"><path fill="#fff" d="M0 0h24v24H0z"/></clipPath></defs></svg>
