<?xml version="1.0" encoding="UTF-8"?>
<svg version="1.1" xmlns="http://www.w3.org/2000/svg" width="45" height="36">
<path d="M0 0 C14.85 0 29.7 0 45 0 C45 11.88 45 23.76 45 36 C30.15 36 15.3 36 0 36 C0 24.12 0 12.24 0 0 Z " fill="#FDFDFD" transform="translate(0,0)"/>
<path d="M0 0 C10.79713931 -0.56606361 10.79713931 -0.56606361 15 3 C17.80422745 6.1064566 18.36550783 8.04421782 18.29296875 12.203125 C18.28330078 13.1828125 18.27363281 14.1625 18.26367188 15.171875 C18.23853516 16.18765625 18.21339844 17.2034375 18.1875 18.25 C18.16719727 19.796875 18.16719727 19.796875 18.14648438 21.375 C18.11117607 23.91719792 18.06186036 26.45833223 18 29 C15.03 29 12.06 29 9 29 C8.67 28.34 8.34 27.68 8 27 C7.67 27.66 7.34 28.32 7 29 C4.36 29 1.72 29 -1 29 C-1.09087891 27.35451172 -1.09087891 27.35451172 -1.18359375 25.67578125 C-1.26804498 24.22134346 -1.35269066 22.76691695 -1.4375 21.3125 C-1.47681641 20.59126953 -1.51613281 19.87003906 -1.55664062 19.12695312 C-1.6552337 11.94408579 -1.6552337 11.94408579 -5 6 C-4.01 5.67 -3.02 5.34 -2 5 C-0.78130071 2.49552484 -0.78130071 2.49552484 0 0 Z " fill="#ECECEC" transform="translate(16,3)"/>
<path d="M0 0 C0.99 0.33 1.98 0.66 3 1 C2.67 2.98 2.34 4.96 2 7 C3.32 7.66 4.64 8.32 6 9 C6 10.32 6 11.64 6 13 C5.34 12.01 4.68 11.02 4 10 C3.67 11.32 3.34 12.64 3 14 C3.66 14.33 4.32 14.66 5 15 C4.67 17.97 4.34 20.94 4 24 C4.99 24 5.98 24 7 24 C7.33 22.02 7.66 20.04 8 18 C9.32 18.66 10.64 19.32 12 20 C12 21.98 12 23.96 12 26 C9.03 26 6.06 26 3 26 C2.67 25.34 2.34 24.68 2 24 C1.67 24.66 1.34 25.32 1 26 C0.01 25.67 -0.98 25.34 -2 25 C-1.34 25 -0.68 25 0 25 C-0.44934887 22.87308203 -0.90976473 20.74849961 -1.375 18.625 C-1.63023438 17.44164063 -1.88546875 16.25828125 -2.1484375 15.0390625 C-2.75523965 11.91803033 -2.75523965 11.91803033 -5 10 C-3.625 8.5 -3.625 8.5 -2 7 C-1.34 7 -0.68 7 0 7 C-0.185625 6.030625 -0.37125 5.06125 -0.5625 4.0625 C-0.706875 3.051875 -0.85125 2.04125 -1 1 C-0.67 0.67 -0.34 0.34 0 0 Z " fill="#050505" transform="translate(22,6)"/>
<path d="M0 0 C0.33 2.64 0.66 5.28 1 8 C1.66 8 2.32 8 3 8 C3.66 12.62 4.32 17.24 5 22 C2.69 22.33 0.38 22.66 -2 23 C-2.09087891 21.35451172 -2.09087891 21.35451172 -2.18359375 19.67578125 C-2.26804498 18.22134346 -2.35269066 16.76691695 -2.4375 15.3125 C-2.47681641 14.59126953 -2.51613281 13.87003906 -2.55664062 13.12695312 C-2.6552337 5.94408579 -2.6552337 5.94408579 -6 0 C-3 -1 -3 -1 0 0 Z " fill="#C6C6C6" transform="translate(17,9)"/>
<path d="M0 0 C0.87269531 -0.01417969 1.74539062 -0.02835937 2.64453125 -0.04296875 C5.29669085 0.19739594 6.91214999 0.84562691 9.1875 2.1875 C6.47870665 3.54189668 4.17816732 3.25251451 1.1875 3.1875 C1.1875 5.4975 1.1875 7.8075 1.1875 10.1875 C0.5275 10.1875 -0.1325 10.1875 -0.8125 10.1875 C-1.1425 11.1775 -1.4725 12.1675 -1.8125 13.1875 C-2.4725 13.1875 -3.1325 13.1875 -3.8125 13.1875 C-3.956875 12.135625 -4.10125 11.08375 -4.25 10 C-4.58046096 7.76020903 -4.95655121 5.52486442 -5.4375 3.3125 C-5.56125 2.61125 -5.685 1.91 -5.8125 1.1875 C-4.16504404 -0.45995596 -2.25914549 0.0165384 0 0 Z " fill="#E1E1E1" transform="translate(20.8125,2.8125)"/>
<path d="M0 0 C0.33 0 0.66 0 1 0 C1 2.64 1 5.28 1 8 C1.99 8 2.98 8 4 8 C4.33 6.02 4.66 4.04 5 2 C6.32 2.66 7.64 3.32 9 4 C9 5.98 9 7.96 9 10 C6.03 10 3.06 10 0 10 C-0.33 8.02 -0.66 6.04 -1 4 C-1.66 4 -2.32 4 -3 4 C-2.67 3.34 -2.34 2.68 -2 2 C-1.34 2.33 -0.68 2.66 0 3 C0 2.01 0 1.02 0 0 Z " fill="#494949" transform="translate(25,22)"/>
<path d="M0 0 C0.99 0.495 0.99 0.495 2 1 C2.33 1.99 2.66 2.98 3 4 C4.29355827 5.37195574 5.62298702 6.71182656 7 8 C6.01 8.495 6.01 8.495 5 9 C5 10.98 5 12.96 5 15 C4.01 15.495 4.01 15.495 3 16 C2.34 15.67 1.68 15.34 1 15 C1.01160156 14.36191406 1.02320312 13.72382813 1.03515625 13.06640625 C1.04417969 12.24011719 1.05320312 11.41382813 1.0625 10.5625 C1.07990234 9.32693359 1.07990234 9.32693359 1.09765625 8.06640625 C1.23267348 6.00836062 1.23267348 6.00836062 0 5 C-0.04063832 3.33382885 -0.042721 1.66611905 0 0 Z " fill="#E1E1E1" transform="translate(25,15)"/>
<path d="M0 0 C1.32 0 2.64 0 4 0 C4 2.97 4 5.94 4 9 C3.01 9 2.02 9 1 9 C0.67 6.03 0.34 3.06 0 0 Z " fill="#F2F2F2" transform="translate(16,17)"/>
<path d="M0 0 C0.25 7.625 0.25 7.625 -2 11 C-2.12117187 10.37351562 -2.24234375 9.74703125 -2.3671875 9.1015625 C-2.53476563 8.28429688 -2.70234375 7.46703125 -2.875 6.625 C-3.03742187 5.81289062 -3.19984375 5.00078125 -3.3671875 4.1640625 C-3.86658932 1.81326077 -3.86658932 1.81326077 -6 0 C-3 -1 -3 -1 0 0 Z " fill="#767676" transform="translate(17,9)"/>
<path d="M0 0 C1.32 0.66 2.64 1.32 4 2 C4 3.65 4 5.3 4 7 C2.35 7 0.7 7 -1 7 C-0.67 4.69 -0.34 2.38 0 0 Z " fill="#020202" transform="translate(30,24)"/>
<path d="M0 0 C0.99 0.33 1.98 0.66 3 1 C2.67 2.98 2.34 4.96 2 7 C0.4375 5.75 0.4375 5.75 -1 4 C-0.6875 1.8125 -0.6875 1.8125 0 0 Z " fill="#191919" transform="translate(22,6)"/>
</svg>
