<svg xmlns="http://www.w3.org/2000/svg" width="45" height="45"><path d="M0 0h45v45H0z" fill="#fefefe"/><path d="M692 180c3.579 2.782 6.817 5.777 10 9l1.742 1.676c15.637 16.325 15.776 42.646 15.351 63.678-.188 5.346-.914 10.436-2.093 15.646l-.777 3.55c-5.06 20.91-15.39 40.545-32.66 53.95-3.686 3.166-4.773 5.756-5.391 10.54-1.232 11.395-1.232 11.395 1.828 21.96 4.68.18 8.838-.1 13.438-1 19.913-3.432 37.613.6 54.304 12.212C760.205 380.239 770.434 390.97 780 403l2.137 2.54C798.469 424.95 811.765 446.85 824 469l1.321 2.345a360 360 0 0 1 3.491 6.405l1.042 1.838c2.603 5.037 2.525 9.072 1.146 14.412-1.148 3.047-2.606 5.844-4.187 8.688l-1.323 2.442c-5.66 10.264-12.057 20.08-18.49 29.87l-1.423 2.173c-5.13 7.813-10.398 15.528-15.736 23.2-3.089 4.458-6.003 9.005-8.841 13.627l3.121-.105c27.48-.646 55.4 7.608 76.879 25.105l2.508 2.012C883.135 617.655 895.75 642.564 899 668l3.875.375c3.875.375 3.875.375 6.125 2.625.266 3.188.266 3.188.25 7l.016 3.813C909 685 909 685 907 687l3.41.813C927.196 692.01 939.996 698.446 952 711l2.238 2.328c4.256 4.859 7.257 10.151 10.074 15.922l.988 1.983c5.044 10.926 6.149 22.586 6.04 34.474l.002 3.907c0 3.487-.017 6.973-.038 10.46-.019 3.662-.02 7.324-.024 10.987-.01 6.912-.034 13.825-.064 20.738-.034 7.879-.05 15.758-.065 23.638-.031 16.187-.084 32.375-.151 48.563l2.388-.076c2.612.076 2.612.076 4.397 1.299 1.512 2.21 1.648 3.55 1.653 6.215l.058 2.308c-.719 3.267-1.805 4.251-4.496 6.254-3.026.583-6.01.505-9.083.454l-2.78.002c-3.03-.003-6.06-.034-9.09-.065q-3.153-.012-6.305-.018a3164 3164 0 0 1-16.591-.098c-5.644-.041-11.288-.06-16.932-.08A8915 8915 0 0 1 881 900l-1 3c-8.859 7.593-18.53 9.932-29.984 9.48-6.109-.518-10.971-3.127-16.016-6.48l-2.082-1.383C825.338 899.6 821.146 891.887 819 884c-1.38-11.917-.03-20.96 7-31 4.815-5.511 10.245-9.252 17-12h4l-.011-2.217q-.134-26.703-.196-53.407-.028-12.913-.095-25.827-.06-11.256-.074-22.513a2059 2059 0 0 0-.047-11.919q-.039-5.61-.03-11.223a600 600 0 0 0-.045-6.073c.051-11.161.051-11.161 4.498-15.821 2.36-1.336 2.36-1.336 4.75-2.375 2.498-1.334 2.498-1.334 4.25-3.625.606-4.324.533-8.277.219-12.613L860 670c1-1 1-1 3.941-1.098l3.621.035 3.63.028L874 669c-4.291-21.23-14.232-41.338-32.203-54.312C817.13 598.418 789.546 597.42 761 598l-.905 1.888c-1.194 2.302-2.568 3.855-4.345 5.737-3.96 4.4-6.868 9.223-9.75 14.375-1.777-2.666-2.875-5.028-4-8l-.734 2.668-1.016 3.52-.984 3.48C738 625 738 625 735.948 626.959c-3.056 4.77-2.459 9.476-2.374 15.021l.009 3.602c.014 3.87.058 7.737.105 11.606q.03 3.992.055 7.985c.05 6.472.125 12.944.213 19.417q.058 4.502.095 9.005c.153 16.914 1.333 33.388 3.898 50.124 1.201 7.964 1.996 15.95 2.739 23.968l.36 3.888q.317 3.452.627 6.904a199 199 0 0 0 .578 5.613c.827 7.14.911 14.258.946 21.436q.02 3.343.053 6.685c.061 6.327.116 12.654.15 18.982.02 3.889.056 7.778.1 11.666q.021 2.214.026 4.428c.005 2.058.028 4.116.055 6.173l.025 3.543c.428 3.27 1.081 4.677 3.392 6.995 2.232.486 2.232.486 4.719.25l2.81-.104L757.5 864c17.382-.393 17.382-.393 24.598 5.8 6.985 7.387 8.438 13.687 8.183 23.684-.512 6.401-1.584 11.36-5.593 16.453-14.064 9.719-41.39 7.457-57.666 7.489a684 684 0 0 0-8.83.111q-2.843.015-5.684.022l-2.633.059c-4.235-.032-7.014-.284-10.38-2.99-2.526-2.66-3.672-4.485-4.808-7.94l-.925-2.676c-1.502-5.94-1.828-11.766-1.95-17.856-.211-8.387-1.242-15.94-3.542-23.991-4.14-14.538-7.113-29.39-10.27-44.165l-.747-3.492c-7.88-36.938-15.142-73.938-21.522-111.166l-.72-4.19q-.663-3.862-1.312-7.728c-.955-5.59-1.973-11.018-3.699-16.424-.19 10.702.269 21.218 1.225 31.876.364 4.069.706 8.14 1.048 12.21l.202 2.39a416 416 0 0 1 1.087 17.399c.275 6.607.764 13.166 1.375 19.75.907 9.781 1.516 19.569 2.063 29.375.58 10.396 1.27 20.762 2.248 31.13.946 10.37 1.49 20.765 2.055 31.161.357 13.348.357 13.348 3.635 26.146 3.504 9.164 6.328 20.03 3 29.625-5.263 5.263-15.47 4.891-22.438 5.75-8.238 1.036-16.45 2.13-24.629 3.56-40.736 7.117-40.736 7.117-55.101-1.302-5.437-4.064-8.62-8.659-10.77-15.07-1.084-8.703-.103-15.778 5-23 3.909-4.688 9.12-6.896 15-8 7.642-.652 14.13-.234 21.336 2.332 5.43 1.362 11.107.884 16.664.668l-.655-1.826c-4.394-12.297-8.483-24.572-11.816-37.198-.8-2.984-1.666-5.948-2.529-8.913-2.229-7.775-4.27-15.596-6.307-23.422-.724-2.759-1.463-5.512-2.205-8.266A493 493 0 0 1 581 754c-4.004 3.394-7.924 6.842-11.75 10.438-13.75 12.375-27.771 17.532-46.09 16.741-15.027-1.247-27.649-10.605-37.285-21.605-4.114-5.295-7.236-10.925-10.125-16.949l-.961-1.996c-4.927-10.75-7.467-22.123-9.541-33.7-.73-4.075-1.49-8.143-2.247-12.212l-.485-2.625c-1.902-10.24-3.938-20.453-5.98-30.666l-.594-2.983q-1.864-9.335-3.733-18.668-1.669-8.337-3.335-16.676-2.793-13.969-5.59-27.938a82958 82958 0 0 1-6.409-32.05q-2.78-13.914-5.565-27.83-1.65-8.242-3.297-16.486c-4.147-20.76-8.3-41.512-12.813-62.195-2.141-9.863-3.97-19.793-5.81-29.716-2.055-11.538-2.055-11.538-5.445-22.728-1.818-5.097-2.548-9.987-3.183-15.328-1.323-10.914-3.386-21.635-5.555-32.406l-.532-2.646a6843 6843 0 0 0-3.298-16.255c-1.495-7.336-2.976-14.675-4.459-22.013q-.775-3.825-1.555-7.648l-.942-4.638-.439-2.14C383 296.226 383 296.226 383 294l-2.887.14-3.8.11-3.762.14c-4.149-.456-5.639-1.472-8.551-4.39-2.152-3.228-2.2-4.284-2-8a2234 2234 0 0 1-13.495 2.563 980 980 0 0 0-4.576.874c-22.36 4.315-22.36 4.315-29.366.875-5.32-4.8-7.852-9.739-10.375-16.312l-.983-2.406c-.3-.774-.602-1.547-.912-2.344l-.827-2.11c-.575-2.639-.14-4.549.534-7.14a2224 2224 0 0 1 30.5-5.562q16.068-2.818 32.125-5.7c23.865-4.282 47.735-8.536 71.623-12.688q3.857-.672 7.712-1.348 5.366-.939 10.735-1.866l3.212-.567c9.447-1.619 9.447-1.619 14.093-1.269 2.514 2.514 1.283 9.19 1.313 12.563l.087 3.251c.052 6.545-.291 11.879-4.4 17.186-4.712 4.231-9.695 5.063-15.75 6.063l-2.766.49c-2.826.498-5.654.975-8.484 1.447l-5.379.918Q430.315 269.985 424 271l.074 3.828c.1 5.182-1.678 7.694-5.199 11.422-2.907 1.77-4.263 2.062-7.555 2.36l-2.452.233L407 289l.531 2.682q2.475 12.492 4.945 24.986 1.27 6.424 2.543 12.847 1.227 6.195 2.45 12.39l.938 4.735q.656 3.308 1.308 6.615l.754 3.81C421 360 421 360 421 362l1.7-.957c4.142-1.878 7.882-2.035 12.3-1.043 5.806 5.201 9.105 12.702 12.25 19.688l2.516 5.449 1.162 2.544A237 237 0 0 0 455 396l4-7h2c1.629 1.8 1.629 1.8 3.563 4.313l2.164 2.773L469 399q2.21 2.726 4.438 5.438l2.277 2.777L478 410l4.5 5.5q3.303 4.038 6.61 8.074l2.14 2.613c.73.893 1.462 1.785 2.215 2.704 1.96 2.398 3.907 4.807 5.851 7.218l1.751 2.168q1.712 2.118 3.416 4.241c2.696 3.336 5.396 6.527 8.517 9.482l1.125-1.562C516 449 516 449 518.688 449.125c3.91 1.033 7.552 2.384 11.312 3.875l.345-2.12c.726-3.192 1.837-5.944 3.14-8.946l1.564-3.618 1.701-3.878.873-2C543.848 418.184 550.267 404.025 557 390l1.493-3.126c11.36-23.55 11.36-23.55 24.694-28.312 6.231-1.86 12.25-2.677 18.743-2.878l3.906-.127 4.039-.12 4.11-.13q5.007-.159 10.015-.307c1.635-3.617 2.281-6.56 2.414-10.52l.117-3.095.094-3.197.117-3.256q.141-3.966.258-7.932l-1.816-.859c-15.75-8.23-24.393-28.752-29.559-44.766C591.03 266.249 590.723 251.69 591 236l-1.82-.124c-6.447-.53-12.414-1.757-18.617-3.564l-2.778-.804c-9.134-2.751-17.46-6.13-23.785-13.508l-1-1c-.375-2.312-.375-2.312 0-5 5.216-5.542 13.402-7.79 20.84-8.13l3.097-.003 3.465-.004 3.598.012 3.504-.012c7.875.01 15.654.422 23.496 1.137l.86-2.323c1.451-3.407 3.635-5.826 6.14-8.49l1.491-1.592C631.659 169.345 663.702 162.061 692 180" fill="#010101"/><path d="m442 433-.562 3.313c.042 6.141 4.173 9.752 8.111 14.079a252 252 0 0 1 4.556 5.225 688 688 0 0 0 18.38 20.649 400 400 0 0 1 6.515 7.296c17.827 22.021 17.827 22.021 41.813 34.5 18.785-1.982 35.033-19.485 47.79-31.822C570 485 570 485 572 484q-.395 8.056-.8 16.113l-.27 5.47q-.195 3.955-.395 7.91l-.117 2.428c-.205 4.01-.494 7.99-.918 11.983-.56 5.375-.822 10.744-1.035 16.143l-.131 3.213c-3.596 83.952-3.596 83.952 6.08 167.146L575 718l.523 2.969c-.845 4.893-4.122 7.575-7.523 11.031l-2.104 2.228a495 495 0 0 1-6.708 6.897l-2.252 2.34c-8.53 8.625-16.453 13.834-28.619 13.927-8.7-.16-14.85-3.73-21.317-9.392-2.281-2.777-2.281-2.777-4.5-5.937l-2.219-3.09c-7.629-12.46-9.64-27.116-12.406-41.207q-.71-3.549-1.422-7.096a6596 6596 0 0 1-3.703-18.634c-1.237-6.244-2.486-12.486-3.734-18.727q-2.765-13.834-5.508-27.671L471 613l-.65-3.274c-2.425-12.21-4.886-24.412-7.487-36.587-5.158-24.183-10.01-48.428-14.866-72.673q-1.896-9.459-3.806-18.915-1.482-7.36-2.955-14.721-.7-3.494-1.406-6.986-.975-4.832-1.937-9.668l-.586-2.87c-.89-4.509-1.538-8.683-1.307-13.306 2-1 2-1 6-1" fill="#fdfdfd"/><path d="M443 104c63.154-.121 63.154-.121 89.682-.146l18.21-.019 2.305-.002a30535 30535 0 0 0 36.662-.064q18.864-.043 37.728-.051a8756 8756 0 0 0 23.212-.042c5.97-.018 11.939-.02 17.908-.015q3.633-.001 7.266-.019C738.17 103.358 797.9 120.614 848 158l1.886 1.406C858.76 166.078 867.015 173.294 875 181l1.783 1.717c7.614 7.37 14.723 14.89 21.217 23.283l2.418 3.043C938.293 257 958.256 316.186 958.12 377.135q0 2.175.003 4.348.002 5.897-.007 11.795-.005 6.389-.002 12.776 0 11.043-.008 22.086-.011 15.965-.012 31.931-.004 25.909-.019 51.818-.014 25.155-.02 50.308v3.137l-.005 15.583Q958.034 645.459 958 710l-2.142-2.253c-2.722-2.617-5.483-4.564-8.588-6.694-4.359-3.56-6.04-5.782-6.625-11.412-.047-2.497-.034-4.995.028-7.492a632 632 0 0 0-.03-4.187c-.026-3.818.016-7.633.069-11.451.046-4.125.027-8.25.017-12.376-.01-7.149.02-14.297.076-21.445.08-10.37.096-20.74.094-31.111-.001-16.873.042-33.746.119-50.618l.013-3.059.014-3.062q.096-21.401.155-42.802l.008-3.034c.045-16.783.07-33.567.084-50.35q.014-15.481.102-30.963.059-10.652.073-21.305c.006-4.077.02-8.153.058-12.23.259-28.768-2.586-56.615-11.525-84.156l-.87-2.69C917.824 263.067 899.746 232.975 876 206l-1.338-1.53C862.785 190.963 849.554 179.548 835 169l-2.08-1.515C813.426 153.45 791.71 142.715 769 135l-2.68-.94c-29.764-10.394-60.912-13.517-92.303-13.492l-7.105-.031c-6.337-.027-12.674-.037-19.011-.043-5.98-.009-11.96-.03-17.94-.053q-17.73-.063-35.461-.095a27378 27378 0 0 1-36.563-.09l-18.725-.06c-26.737-.084-53.475-.137-80.212-.196v104l-16 2z" fill="#040404"/><path d="M443 622c1.732 3.465 2.488 5.763 3.19 9.48l.637 3.33c.22 1.186.442 2.371.67 3.592l.709 3.724q.933 4.906 1.856 9.814 1.291 6.858 2.596 13.713.692 3.642 1.376 7.286l.647 3.416.554 2.945c.437 2.112.913 4.22 1.503 6.295 2.765 10.257 2.665 20.165 2.603 30.7v6.064c.002 5.452-.016 10.903-.037 16.355-.019 5.71-.02 11.421-.024 17.132a16767 16767 0 0 1-.064 32.394c-.04 14.602-.056 29.205-.073 43.808-.029 22.984-.088 45.968-.143 68.952h92l5 10 5 6H443z"/><path d="M723 426c4.187 3.268 7.644 6.733 11.09 10.77 2.058 2.403 4.165 4.756 6.285 7.105q4.507 4.994 9 10a1311 1311 0 0 0 8.667 9.541q1.391 1.516 2.777 3.04a288 288 0 0 0 7.103 7.54l2.765 2.879 2.512 2.555c2.616 3.734 2.136 6.498 1.434 10.843l-.508 2.102-.492 2.086L773 497l-.724 3.514c-1.336 5.315-3.804 9.957-6.327 14.795l-1.502 2.927c-1.579 3.071-3.17 6.136-4.76 9.202l-3.17 6.166c-2.819 5.476-5.64 10.95-8.517 16.396l-1.352 2.595-1.313 2.46-1.158 2.19C743 559 743 559 740.187 560.563c-11.48 1.576-11.48 1.576-16.187-1.562-3.218-5.121-5.067-10.76-6.625-16.562l-.644-2.365c-1.916-7.307-3.004-14.549-3.731-22.073l-.336-2.977c-2.51-25.71-.563-51.33 5.899-76.273l.635-2.456.618-2.31.546-2.04c.69-2.104 1.604-3.988 2.638-5.944" fill="#fdfdfd"/><path d="M459 270q.141 21.384.207 42.768c.021 6.62.05 13.238.095 19.858q.063 9.58.078 19.16.01 3.657.043 7.314c.029 3.412.033 6.823.031 10.235l.044 3.062c-.027 4.503-.048 6.9-2.526 10.77L455 385l-1.61-3.29-2.14-4.335-1.055-2.16-1.054-2.13-.953-1.935c-1.199-2.31-1.199-2.31-3.234-4.725-2.489-4.362-2.494-7.447-2.408-12.368l-.002-2.663c.003-2.89.034-5.778.065-8.667q.012-3.015.018-6.028c.015-5.278.054-10.554.098-15.832.041-5.389.06-10.778.08-16.168q.066-15.85.195-31.699c5.443-1.865 10.221-3 16-3" fill="#040404"/><path d="M900.969 904.414q2.47.017 4.943.026c4.314.023 8.627.081 12.94.148 4.412.062 8.823.089 13.234.119 8.639.064 17.276.166 25.914.293v12h-94c3.045-2.03 5.972-3.268 9.355-4.61 2.591-1.192 2.591-1.192 4.057-2.818 6.695-6.416 14.918-5.331 23.557-5.158M794 901c4.5-.234 8.997-.375 13.5-.5l3.844-.203c9.35-.195 9.35-.195 13.125 2.4 2.043 2.123 2.043 2.123 3.863 4.325 2.27 2.692 4.796 3.924 7.98 5.353 3.102 1.422 5.843 2.728 8.688 4.625h-62l5-4c2.945-3.87 4.543-7.393 6-12" fill="#080808"/><path d="M443 622c2.2 4.398 2.519 7.186 3 12h-2v282l116-1 1 2H443z" fill="#373737"/><path d="M445 455c13.003 10.35 13.003 10.35 14.61 17.848.196 3.23.179 6.39.074 9.625l-.03 3.526c-.04 3.69-.127 7.375-.216 11.063a2910 2910 0 0 0-.096 7.538c-.077 6.134-.194 12.267-.342 18.4h-1q-2.55-12.412-5.085-24.826a9482 9482 0 0 0-2.36-11.528q-1.144-5.563-2.277-11.127-.433-2.123-.87-4.244a2158 2158 0 0 1-1.215-5.946l-.7-3.418C445 459 445 459 445 455" fill="#080808"/><path d="M674 901h14l2.93 8.105c.979 2.649 2.021 5.273 3.07 7.895h-47v-1l3.762-.55 4.926-.763 2.474-.357c4.544-.717 8.091-1.471 11.838-4.33 2.227-3.102 3.06-5.242 4-9" fill="#0c0c0c"/></svg>
